<?xml version="1.0" standalone="no"?>
<!DOCTYPE svg PUBLIC "-//W3C//DTD SVG 20010904//EN"
 "http://www.w3.org/TR/2001/REC-SVG-20010904/DTD/svg10.dtd">
<svg version="1.0" xmlns="http://www.w3.org/2000/svg"
 width="1879.000000pt" height="1879.000000pt" viewBox="0 0 1879.000000 1879.000000"
 preserveAspectRatio="xMidYMid meet">
<metadata>
Created by potrace 1.14, written by Peter Selinger 2001-2017
</metadata>
<g transform="translate(0.000000,1879.000000) scale(0.100000,-0.100000)"
fill="#000000" stroke="none">
<path d="M4031 18317 c-6 -6 -11 -17 -11 -25 0 -9 -6 -12 -16 -8 -8 3 -12 2
-9 -4 7 -11 -23 -72 -33 -66 -4 2 -8 -8 -9 -22 0 -15 -6 -28 -12 -30 -6 -2
-11 -10 -11 -18 0 -8 -5 -14 -12 -14 -6 0 -9 -3 -5 -6 3 -4 -5 -23 -18 -43
-14 -19 -25 -41 -25 -48 0 -7 -4 -13 -9 -13 -5 0 -13 -9 -16 -20 -4 -11 -10
-18 -15 -15 -4 3 -6 -4 -3 -15 3 -11 1 -20 -5 -20 -6 0 -14 -10 -18 -22 -3
-13 -12 -30 -19 -38 -7 -8 -27 -42 -45 -75 -18 -33 -38 -64 -44 -70 -7 -5 -11
-15 -9 -21 2 -6 -3 -17 -12 -24 -8 -7 -15 -18 -15 -25 0 -7 -7 -18 -15 -25 -8
-7 -12 -16 -9 -21 3 -5 1 -9 -4 -9 -5 0 -15 -13 -22 -30 -7 -16 -16 -30 -21
-30 -5 0 -8 -3 -7 -7 1 -9 -13 -46 -21 -53 -7 -6 -34 -52 -58 -100 -10 -19
-21 -37 -24 -40 -3 -3 -19 -30 -35 -60 -16 -30 -33 -58 -39 -62 -7 -5 -7 -8 0
-8 6 0 5 -4 -1 -8 -6 -4 -24 -32 -40 -62 -15 -30 -31 -57 -34 -60 -4 -3 -17
-24 -30 -47 -13 -23 -27 -40 -31 -37 -5 3 -6 -2 -2 -11 3 -10 2 -20 -3 -24
-10 -6 -25 -32 -58 -96 -12 -22 -24 -42 -27 -45 -3 -3 -19 -30 -36 -60 -28
-52 -44 -79 -95 -167 -11 -21 -26 -47 -32 -58 -6 -11 -19 -31 -28 -45 -9 -14
-30 -50 -47 -80 -17 -30 -35 -54 -40 -53 -6 2 -8 -3 -5 -10 3 -8 -13 -44 -36
-80 -22 -37 -40 -71 -40 -77 0 -5 -5 -10 -10 -10 -6 0 -9 -3 -8 -7 1 -5 -9
-26 -23 -48 -15 -22 -29 -50 -33 -62 -4 -13 -11 -23 -16 -23 -5 0 -14 -16 -21
-35 -7 -19 -16 -35 -20 -35 -4 0 -13 -16 -20 -35 -7 -19 -16 -35 -20 -35 -4 0
-12 -13 -19 -30 -7 -16 -17 -27 -23 -23 -6 3 -7 1 -3 -6 4 -6 1 -23 -8 -36 -9
-14 -17 -28 -18 -32 -1 -5 -8 -14 -15 -21 -7 -7 -13 -20 -13 -28 0 -8 -4 -14
-9 -14 -5 0 -14 -12 -20 -27 -24 -57 -52 -104 -59 -99 -4 2 -8 -3 -9 -13 -1
-10 -19 -47 -41 -82 -21 -35 -54 -91 -72 -124 -18 -33 -41 -73 -51 -90 -10
-16 -26 -45 -35 -62 -9 -18 -20 -30 -25 -27 -5 3 -9 2 -8 -3 4 -16 -13 -63
-23 -63 -5 0 -6 -4 -3 -10 3 -5 3 -10 -2 -10 -4 0 -21 -26 -38 -58 -16 -31
-36 -61 -42 -65 -7 -4 -13 -17 -13 -27 0 -11 -5 -20 -11 -20 -5 0 -7 -4 -4
-10 3 -5 2 -10 -3 -10 -5 0 -13 -8 -16 -17 -4 -10 -16 -35 -29 -55 -23 -38
-51 -88 -83 -148 -11 -19 -21 -37 -24 -40 -12 -12 -40 -60 -35 -60 4 0 -1 -7
-9 -16 -9 -8 -16 -22 -16 -30 0 -8 -4 -14 -9 -14 -5 0 -11 -8 -15 -17 -11 -35
-64 -122 -70 -116 -3 4 -6 -3 -6 -15 0 -11 -6 -27 -12 -34 -7 -7 -19 -25 -27
-40 -8 -15 -19 -25 -24 -21 -6 3 -7 1 -3 -5 7 -12 -17 -64 -41 -90 -7 -7 -16
-24 -19 -38 -3 -13 -10 -24 -15 -24 -5 0 -9 -5 -9 -10 0 -6 -11 -27 -24 -48
-44 -70 -80 -137 -78 -144 1 -5 -1 -8 -6 -8 -4 0 -20 -26 -37 -58 -16 -31 -33
-59 -36 -62 -3 -3 -12 -17 -20 -32 -13 -25 -91 -161 -116 -203 -6 -11 -20 -36
-30 -55 -29 -54 -47 -84 -54 -90 -3 -3 -8 -13 -12 -22 -5 -13 -1 -18 12 -18
11 0 22 -6 24 -12 4 -9 6 -10 6 -1 1 8 10 9 33 2 17 -5 46 -10 65 -11 18 -1
33 -5 33 -8 0 -3 12 -6 28 -6 77 -3 83 -4 76 -16 -6 -10 -5 -10 8 -1 8 7 17
10 20 8 3 -3 20 -7 37 -10 18 -2 44 -6 59 -9 15 -3 45 -8 67 -11 22 -3 76 -12
120 -20 44 -9 98 -18 120 -20 22 -3 51 -7 65 -10 14 -3 54 -10 90 -15 36 -5
79 -12 95 -15 48 -8 87 -14 130 -20 22 -4 47 -8 56 -11 9 -2 32 -7 50 -9 64
-8 104 -14 124 -18 11 -3 43 -8 70 -11 28 -4 57 -9 65 -11 15 -4 74 -14 120
-20 59 -8 105 -16 134 -21 17 -4 38 -7 46 -9 13 -1 58 -9 120 -20 8 -1 40 -6
70 -11 30 -4 57 -8 60 -9 3 -1 32 -5 65 -10 33 -5 62 -9 65 -10 3 -1 30 -5 60
-10 30 -5 58 -10 63 -11 4 -1 16 -2 28 -3 13 -1 18 -5 13 -13 -5 -10 -4 -10 5
-2 9 8 24 9 44 4 30 -8 117 -22 145 -23 6 0 12 -3 12 -6 0 -3 26 -7 57 -9 31
-1 59 -5 62 -10 3 -4 22 -7 41 -8 19 -1 49 -4 65 -7 61 -12 151 -27 195 -33
25 -3 52 -7 60 -8 16 -2 90 -15 125 -21 11 -2 41 -7 67 -10 31 -5 45 -11 41
-19 -4 -6 -1 -6 9 1 8 7 17 11 20 8 3 -3 23 -8 44 -10 21 -3 50 -7 64 -10 51
-9 156 -26 203 -32 26 -3 47 -8 47 -10 0 -17 -84 -173 -94 -173 -6 0 -4 -5 4
-10 10 -6 11 -10 3 -10 -7 0 -13 -8 -13 -19 0 -10 -7 -24 -15 -31 -9 -7 -14
-19 -11 -25 2 -7 -1 -18 -7 -24 -7 -7 -12 -15 -13 -19 -1 -7 -12 -34 -45 -111
-11 -27 -22 -55 -23 -62 -2 -8 -8 -27 -14 -42 -7 -16 -12 -31 -12 -34 0 -6
-27 -70 -45 -106 -9 -17 -10 -25 -3 -21 6 4 8 3 5 -3 -9 -15 -29 -66 -33 -83
-4 -24 -9 -41 -32 -114 -12 -37 -24 -78 -27 -90 -2 -11 -12 -50 -21 -86 -9
-36 -17 -69 -19 -75 -1 -5 -5 -17 -8 -25 -3 -8 -9 -37 -13 -65 -4 -27 -9 -57
-11 -65 -2 -8 -6 -28 -9 -44 -2 -17 -7 -32 -12 -35 -4 -3 -8 -30 -9 -60 -1
-30 -7 -57 -14 -61 -8 -6 -8 -9 0 -14 6 -4 9 -11 7 -15 -8 -13 -22 -106 -31
-206 -3 -27 -7 -75 -10 -105 -13 -145 -15 -185 -17 -308 -1 -75 -5 -129 -10
-126 -5 4 -4 -4 4 -15 11 -18 11 -23 -2 -31 -9 -6 -10 -10 -3 -10 7 0 12 -26
12 -77 3 -196 6 -281 12 -277 4 2 7 -20 9 -49 2 -60 5 -85 14 -147 3 -25 8
-61 11 -80 4 -32 22 -146 28 -180 1 -8 5 -19 8 -25 2 -5 5 -29 4 -52 0 -22 3
-39 7 -37 3 2 9 -15 13 -38 4 -24 9 -54 12 -68 2 -14 13 -54 23 -90 11 -36 22
-76 24 -90 3 -14 11 -47 20 -74 8 -27 14 -52 14 -55 -1 -3 2 -13 5 -21 7 -17
67 -193 69 -200 0 -3 4 -15 9 -28 5 -13 9 -28 9 -33 0 -5 4 -17 9 -27 5 -9 19
-44 31 -77 13 -33 26 -68 32 -78 5 -10 6 -23 2 -29 -4 -7 -3 -8 4 -4 7 4 12 2
12 -5 0 -7 16 -46 35 -86 19 -41 33 -78 30 -83 -3 -4 -1 -10 3 -12 12 -5 84
-148 75 -148 -5 0 -3 -4 3 -8 14 -9 94 -168 88 -176 -2 -3 -1 -4 3 -1 9 7 73
-106 67 -117 -3 -4 -1 -8 4 -8 5 0 29 -33 53 -72 23 -40 45 -75 49 -78 4 -3
15 -21 26 -40 10 -19 25 -43 33 -52 12 -15 12 -20 0 -35 -12 -16 -12 -17 2 -6
13 10 21 4 55 -43 62 -89 187 -257 211 -284 53 -62 123 -154 123 -162 0 -5 5
-6 10 -3 6 3 10 3 10 -2 0 -4 16 -25 35 -46 19 -21 33 -43 29 -48 -3 -5 -2 -8
3 -7 8 3 55 -44 189 -183 72 -76 282 -272 326 -306 21 -15 37 -34 38 -41 0 -7
5 -10 10 -7 6 3 10 1 10 -4 0 -6 5 -11 10 -11 16 0 60 -47 52 -56 -4 -4 -2 -4
4 -1 6 4 24 -5 40 -18 16 -14 34 -29 39 -33 35 -26 102 -80 119 -94 11 -10 23
-18 27 -18 4 0 14 -6 21 -13 7 -7 42 -33 78 -57 36 -25 70 -49 77 -55 7 -5 19
-16 27 -22 8 -7 20 -13 26 -13 5 0 10 -3 10 -8 0 -4 17 -16 38 -27 20 -11 42
-24 47 -28 27 -22 148 -97 156 -97 5 0 9 -4 9 -8 0 -5 16 -14 35 -22 19 -8 35
-17 35 -21 0 -4 17 -14 38 -24 56 -25 101 -51 124 -72 11 -10 22 -17 24 -15 5
3 95 -41 157 -76 20 -12 37 -18 37 -14 0 4 4 2 8 -3 8 -12 64 -39 75 -37 4 1
7 -2 7 -8 0 -5 8 -10 18 -10 10 0 22 -4 27 -9 6 -5 53 -28 105 -51 52 -23 109
-48 127 -56 17 -8 35 -14 40 -14 4 -1 26 -9 48 -20 22 -11 46 -19 53 -20 7 0
10 -5 6 -12 -4 -6 -3 -8 4 -4 6 3 23 1 39 -5 15 -7 33 -13 38 -15 18 -5 110
-39 114 -42 9 -5 6 -157 -2 -176 -5 -10 -5 -16 0 -13 11 7 9 -216 -2 -233 -5
-7 -4 -11 1 -8 5 4 9 -20 9 -52 0 -32 -4 -56 -8 -53 -5 3 -5 -3 0 -13 11 -23
9 -176 -2 -194 -5 -7 -4 -11 1 -7 12 7 11 -774 -1 -792 -5 -8 -4 -12 1 -8 11
7 11 -934 -1 -953 -5 -7 -4 -11 1 -7 11 7 11 -614 -1 -633 -5 -7 -4 -11 1 -7
11 7 11 -614 -1 -633 -5 -7 -4 -11 1 -7 11 7 11 -614 -1 -633 -5 -7 -4 -11 1
-7 5 3 9 -110 9 -274 -1 -222 2 -279 12 -279 7 0 13 -5 13 -11 0 -5 4 -7 10
-4 5 3 10 2 10 -3 0 -5 6 -9 13 -9 6 0 26 -4 42 -8 17 -3 39 -8 50 -10 11 -2
38 -7 60 -11 51 -10 303 -9 378 1 31 4 57 12 57 17 0 5 4 7 8 4 15 -9 82 14
103 35 12 12 18 27 14 39 -3 10 -1 21 5 25 6 3 7 12 3 18 -10 16 -10 137 -1
144 5 2 5 10 1 16 -10 17 -10 309 0 331 5 10 5 16 0 13 -11 -7 -10 214 2 232
4 8 4 12 -1 8 -12 -7 -11 213 1 232 4 8 4 12 -1 8 -12 -7 -11 213 1 232 4 8 4
12 -1 8 -12 -7 -11 213 1 232 4 8 4 12 -1 8 -11 -7 -11 294 1 312 5 8 4 12 -1
8 -12 -7 -11 213 1 232 4 8 4 12 -1 8 -12 -7 -11 213 1 232 4 8 4 12 -1 8 -12
-7 -11 213 1 232 4 8 4 12 -1 8 -12 -7 -11 213 1 232 5 8 4 12 -1 8 -11 -6
-11 103 -1 120 4 6 4 14 -1 16 -9 7 -9 128 1 144 4 6 4 14 -1 16 -9 7 -9 128
1 144 4 6 4 14 -1 16 -9 7 -9 128 1 144 4 6 4 14 -1 16 -9 7 -9 128 1 144 4 6
4 14 -1 16 -9 7 -9 128 1 144 4 6 4 14 -1 16 -9 7 -9 128 1 144 4 6 4 14 -1
16 -9 6 -9 128 1 143 3 6 3 14 -1 18 -10 11 -10 228 1 250 5 10 5 16 0 13 -11
-7 -10 214 2 232 4 8 4 12 -1 8 -5 -3 -9 33 -9 84 0 74 2 88 15 84 8 -2 29 -7
45 -10 17 -2 41 -7 55 -10 48 -11 108 -23 160 -31 19 -3 46 -8 60 -11 14 -2
41 -7 60 -9 19 -2 44 -6 56 -8 11 -3 43 -8 70 -11 27 -3 60 -8 74 -11 14 -2
52 -7 85 -10 33 -2 71 -7 84 -9 13 -2 63 -7 110 -11 47 -3 102 -8 121 -10 193
-19 749 -18 948 1 39 4 72 3 73 -2 5 -47 2 -516 -4 -520 -4 -2 -4 -9 0 -16 9
-16 10 -217 1 -223 -5 -3 -5 -10 -1 -17 9 -16 10 -217 1 -223 -5 -3 -5 -11 -1
-17 10 -17 11 -137 1 -143 -4 -3 -5 -10 -1 -17 9 -16 10 -217 1 -223 -5 -3 -5
-10 -1 -17 9 -16 10 -217 1 -223 -5 -3 -5 -11 -1 -17 9 -15 10 -675 1 -690 -4
-6 -2 -17 4 -24 7 -9 7 -17 -1 -26 -6 -8 -8 -17 -4 -20 10 -10 11 -97 1 -103
-5 -3 -5 -10 -1 -17 9 -16 10 -217 1 -223 -5 -3 -5 -10 -1 -17 9 -16 10 -217
1 -223 -5 -3 -5 -10 -1 -17 9 -16 10 -217 1 -223 -5 -3 -5 -10 -1 -17 9 -16
10 -217 1 -223 -5 -3 -5 -11 -1 -17 10 -16 10 -858 0 -864 -4 -2 -4 -10 0 -16
4 -7 8 -50 9 -97 0 -47 2 -90 3 -96 1 -10 81 -60 81 -50 0 3 19 -1 43 -8 56
-16 105 -20 277 -19 179 1 193 2 253 20 26 8 55 12 63 9 8 -3 12 -2 9 3 -3 5
4 12 15 16 11 3 24 14 28 23 5 9 8 98 7 197 -1 99 3 188 8 199 6 13 6 16 -2
12 -7 -5 -10 1 -7 16 2 13 10 22 17 20 9 -2 7 3 -4 16 -12 13 -15 22 -7 27 5
3 7 12 3 18 -11 17 -11 89 0 111 5 10 5 16 0 13 -4 -3 -8 108 -7 246 0 213 3
252 15 249 12 -2 11 0 -1 10 -19 16 -27 53 -9 42 8 -5 10 -3 3 7 -12 19 -13
150 -1 173 6 13 6 16 -2 12 -7 -5 -10 1 -7 16 2 13 10 22 17 20 9 -2 7 3 -4
16 -12 13 -15 22 -7 27 5 3 7 12 3 18 -11 17 -11 89 0 111 6 12 5 16 -1 12
-12 -7 -9 74 3 94 5 9 4 11 -3 6 -8 -5 -11 0 -8 16 2 13 10 22 17 20 9 -2 7 3
-4 16 -12 13 -15 22 -7 27 5 3 7 12 3 18 -11 17 -11 89 0 111 5 10 5 16 0 13
-4 -3 -8 108 -7 246 0 213 3 252 15 249 12 -2 11 0 -1 10 -19 16 -27 53 -9 42
8 -5 10 -3 3 7 -12 19 -13 150 -1 173 6 13 6 16 -2 12 -7 -5 -10 1 -7 16 2 13
10 22 17 20 9 -2 7 3 -4 16 -12 13 -15 22 -7 27 5 3 7 12 3 18 -11 17 -11 89
0 111 6 13 6 16 -2 12 -12 -8 -11 21 2 41 4 6 4 14 -1 17 -11 6 -8 97 3 116 5
8 4 11 -1 7 -6 -3 -9 42 -8 116 1 95 4 121 14 119 11 -2 10 0 -1 14 -16 19
-21 286 -6 318 5 10 5 16 0 13 -4 -3 -8 63 -7 146 1 121 4 151 14 149 11 -3
11 0 0 13 -11 14 -14 88 -15 382 0 201 3 366 6 368 3 2 70 18 149 35 234 52
754 204 855 250 11 5 43 18 70 29 78 29 282 115 360 151 148 67 461 228 493
253 6 5 12 6 12 3 0 -4 9 1 19 11 11 10 37 27 58 38 43 22 133 75 148 87 6 5
66 45 135 90 69 45 131 88 138 95 7 7 17 13 21 13 7 0 22 11 68 50 7 5 17 10
23 10 5 0 10 3 10 8 0 4 23 23 50 42 27 19 50 38 50 43 0 4 5 7 10 7 6 0 23
11 38 25 15 14 32 23 39 21 7 -3 10 1 6 10 -3 8 1 14 11 14 9 0 16 5 16 11 0
6 7 9 14 6 10 -4 13 -1 9 8 -3 9 2 18 12 21 9 4 32 22 52 40 19 19 40 31 46
27 6 -3 7 -1 3 5 -3 6 0 14 8 19 50 29 406 380 526 520 19 22 39 38 44 35 5
-3 6 -1 3 5 -4 5 6 23 21 39 16 16 41 47 58 69 16 21 36 46 44 55 8 9 26 31
40 50 14 18 30 38 35 44 28 31 75 95 75 104 0 5 7 12 15 16 8 3 15 12 15 21 0
8 5 15 10 15 6 0 10 5 10 11 0 6 6 17 13 24 26 30 37 44 37 50 0 3 9 15 20 27
11 12 20 28 20 35 0 7 7 13 16 13 8 0 13 4 9 9 -3 6 22 51 55 100 33 50 64 99
67 108 4 10 21 41 37 68 17 28 36 59 43 70 6 11 51 99 99 195 47 96 93 187
101 202 7 15 14 30 13 33 0 3 7 19 15 35 8 16 15 32 15 35 0 3 7 19 15 35 8
16 15 31 14 32 0 2 4 16 10 31 6 16 11 33 11 38 0 6 5 7 12 3 7 -5 8 -3 3 5
-4 7 -3 23 2 34 28 61 43 99 43 107 0 5 5 21 12 37 6 15 12 31 13 36 2 4 3 8
5 10 1 1 3 11 5 21 2 11 7 31 11 45 4 14 8 31 9 36 0 6 7 9 15 7 11 -3 11 0 1
12 -7 8 -8 17 -2 20 5 3 12 24 16 46 4 22 11 38 16 35 5 -4 6 0 3 8 -3 8 5 50
16 93 12 43 23 84 24 89 8 29 24 115 25 133 1 8 6 10 14 6 9 -5 9 -4 1 5 -9
10 -8 26 2 64 7 29 16 72 19 97 3 25 8 56 10 70 23 150 25 163 40 315 17 168
24 649 11 770 -3 28 -8 86 -12 130 -10 114 -10 115 -17 165 -4 25 -9 63 -11
85 -3 22 -7 47 -10 55 -2 8 -7 38 -10 65 -4 28 -12 75 -19 106 l-14 57 45 113
c25 63 49 116 53 117 5 2 7 8 3 13 -3 5 -2 15 3 22 4 6 8 14 8 17 1 3 9 22 18
44 9 21 17 42 17 46 0 4 7 21 16 39 9 17 17 37 18 44 1 7 8 22 14 35 7 12 10
22 7 22 -3 0 1 10 9 23 8 12 15 24 14 27 0 3 7 23 17 45 9 22 18 45 19 50 2 6
8 23 14 38 7 16 12 33 12 38 0 6 4 8 9 5 4 -3 8 4 7 17 0 12 4 21 11 20 7 -2
10 3 7 10 -3 8 1 27 7 43 7 16 13 31 14 34 1 3 9 23 19 45 10 22 19 45 20 50
2 6 8 21 13 35 6 14 21 50 32 80 22 56 25 64 56 134 9 21 18 44 19 50 1 6 10
29 20 51 10 22 19 45 21 50 14 45 18 54 26 49 5 -3 6 1 3 9 -6 16 32 108 49
119 9 6 9 8 -1 8 -10 0 -9 5 2 23 8 12 17 33 21 47 4 14 13 39 20 55 13 30 27
66 30 75 1 3 9 23 19 45 10 22 19 45 20 50 1 6 7 19 13 30 6 11 12 25 13 30 6
25 13 34 21 29 5 -3 6 2 3 11 -4 9 -2 26 4 38 12 27 67 160 68 167 1 6 10 29
40 98 13 28 21 52 18 52 -2 0 4 12 13 27 10 15 18 30 18 33 0 3 3 4 6 3 3 -1
5 8 4 20 -3 30 13 59 28 51 9 -5 9 -4 0 6 -9 10 -9 17 2 34 8 11 15 26 17 31
2 6 7 9 11 7 5 -1 5 2 2 8 -10 16 15 71 29 63 7 -4 7 -2 -1 7 -7 8 -8 19 -3
29 9 18 25 55 65 156 15 39 33 84 40 100 28 70 60 150 60 155 1 3 9 23 19 45
10 22 19 45 20 50 1 6 7 19 13 30 6 11 13 25 15 30 1 6 6 9 9 8 3 -1 5 8 4 20
-1 12 5 32 13 45 8 12 11 22 7 22 -4 0 -2 6 4 14 7 8 14 25 16 37 3 13 11 29
20 35 8 6 12 14 9 17 -4 3 -3 14 1 24 5 10 9 20 10 23 3 9 35 84 47 110 6 14
13 34 15 44 2 11 9 26 15 33 9 12 -11 13 -128 9 -76 -3 -139 -6 -139 -7 0 -2
-61 -7 -170 -13 -60 -3 -134 -8 -163 -11 -42 -4 -52 -3 -46 7 6 10 3 9 -9 -1
-10 -8 -34 -12 -62 -9 -25 2 -45 1 -45 -3 0 -3 -15 -5 -32 -5 -18 0 -68 -4
-110 -7 -59 -5 -78 -4 -78 6 0 9 -2 9 -8 0 -5 -8 -48 -14 -122 -18 -63 -2
-142 -7 -175 -10 -33 -3 -109 -8 -170 -11 -60 -3 -132 -7 -160 -9 -111 -8
-152 -8 -165 0 -8 5 -11 4 -7 -2 4 -7 -9 -11 -36 -12 -23 0 -80 -3 -127 -5
-47 -3 -128 -8 -180 -10 -52 -3 -95 -6 -95 -7 0 -7 -74 -3 -84 5 -11 8 -13 8
-7 -1 5 -9 -1 -13 -21 -13 -56 -1 -276 -14 -438 -25 -27 -2 -104 -6 -170 -10
-153 -9 -197 -11 -320 -20 -55 -3 -136 -8 -180 -10 -182 -9 -292 -16 -319 -20
-19 -2 -40 3 -57 16 -15 10 -31 19 -36 19 -6 0 -18 9 -28 20 -10 11 -24 20
-32 20 -7 0 -16 7 -19 15 -4 8 -10 13 -14 10 -4 -3 -13 2 -20 10 -7 8 -17 15
-22 15 -14 0 -38 27 -30 34 3 4 -1 4 -10 1 -9 -4 -29 2 -45 12 -39 26 -63 40
-103 60 -19 9 -37 20 -40 23 -3 3 -27 17 -55 30 -27 14 -53 29 -56 33 -3 5
-10 9 -15 9 -5 0 -8 4 -7 8 2 5 -6 7 -17 5 -11 -2 -22 1 -26 6 -3 6 -49 31
-103 56 -280 131 -326 152 -351 158 -3 0 -15 6 -27 13 -13 7 -23 10 -23 7 0
-3 -12 3 -27 12 -15 10 -27 16 -28 14 0 -2 -22 6 -49 18 -28 12 -60 24 -73 27
-13 4 -23 9 -23 13 0 4 -8 7 -17 8 -22 2 -40 7 -76 21 -16 7 -35 12 -43 12 -9
0 -12 5 -8 12 4 6 3 8 -3 5 -6 -4 -24 -2 -40 3 -22 8 -29 17 -31 41 -3 33 -26
84 -48 107 -8 7 -11 18 -8 24 4 6 2 8 -3 5 -13 -8 -46 27 -36 38 5 4 3 5 -3 2
-7 -4 -29 7 -49 23 -21 17 -44 30 -51 30 -8 0 -14 3 -14 8 0 4 -18 15 -40 25
-23 9 -39 21 -36 25 2 4 -3 8 -12 9 -22 2 -41 7 -72 20 -89 38 -241 89 -297
100 -31 5 -35 6 -78 18 -16 4 -34 10 -39 13 -5 3 -23 7 -40 8 -17 2 -38 5 -46
7 -8 2 -32 7 -53 12 -39 8 -54 19 -37 30 11 7 -14 75 -32 86 -6 4 -8 12 -4 18
4 6 2 9 -7 6 -7 -3 -21 3 -31 14 -10 11 -23 18 -27 15 -5 -3 -9 -1 -9 4 0 11
-154 72 -220 87 -8 2 -46 11 -85 20 -38 10 -79 19 -90 20 -11 2 -43 6 -70 9
-28 4 -61 9 -75 11 -64 13 -254 27 -392 29 -60 0 -108 5 -108 9 0 4 -9 3 -20
-3 -14 -7 -26 -7 -39 -1 -10 6 -22 7 -25 3 -4 -3 -42 -8 -84 -9 -88 -2 -200
-10 -287 -19 -33 -4 -73 -7 -90 -8 -16 -1 -32 -4 -35 -8 -3 -4 -35 -9 -72 -10
-36 -2 -64 -6 -61 -10 2 -5 -5 -9 -16 -9 -12 -1 -24 -2 -28 -4 -5 -1 -21 -5
-38 -9 -16 -4 -58 -17 -93 -28 -34 -11 -68 -21 -75 -22 -24 -4 -133 -66 -164
-94 -18 -15 -34 -38 -36 -50 -2 -12 -6 -24 -10 -28 -3 -4 -2 -14 3 -24 8 -15
-3 -19 -93 -39 -56 -12 -115 -24 -129 -26 -15 -3 -38 -9 -50 -14 -13 -4 -33
-7 -45 -6 -12 1 -20 -2 -17 -7 3 -4 -13 -11 -36 -14 -22 -4 -40 -11 -40 -17 0
-6 -3 -8 -6 -4 -3 3 -37 -5 -75 -19 -38 -14 -75 -22 -82 -18 -6 4 -9 4 -5 -1
4 -4 -23 -22 -60 -39 -108 -50 -179 -94 -232 -146 -27 -26 -51 -45 -54 -42 -4
3 -6 -4 -6 -14 0 -11 -5 -25 -10 -30 -9 -9 -15 -29 -24 -82 -3 -19 -19 -31
-46 -36 -14 -2 -26 -5 -27 -7 -2 -1 -6 -2 -10 -4 -5 -1 -16 -5 -25 -9 -9 -4
-22 -9 -30 -10 -7 -2 -24 -8 -38 -13 -14 -6 -28 -9 -32 -6 -5 2 -8 -1 -8 -6 0
-6 -3 -10 -7 -9 -9 1 -25 -5 -90 -33 -23 -11 -48 -19 -55 -19 -8 0 -19 -5 -26
-12 -7 -7 -12 -8 -12 -2 0 5 -4 4 -8 -1 -4 -6 -38 -23 -77 -39 -38 -16 -92
-39 -119 -53 -26 -13 -55 -22 -63 -19 -8 3 -12 2 -9 -2 3 -5 -61 -41 -142 -81
-81 -39 -160 -80 -177 -89 -281 -161 -325 -188 -384 -226 l-44 -29 -26 30
c-52 61 -76 94 -73 104 1 6 -2 8 -7 5 -5 -3 -36 29 -69 72 -33 42 -73 91 -87
107 -15 17 -36 43 -48 58 -12 16 -30 37 -41 47 -10 11 -15 24 -11 31 5 7 4 10
-2 6 -14 -9 -37 19 -28 32 3 7 0 8 -9 5 -9 -3 -16 -1 -16 4 0 6 -11 22 -25 36
-14 14 -25 28 -25 32 0 4 -8 14 -18 23 -10 9 -33 36 -52 61 -19 24 -42 52 -50
61 -8 9 -28 33 -45 54 -16 21 -39 48 -50 61 -11 12 -29 34 -39 49 -11 14 -28
36 -39 48 -10 12 -28 33 -40 47 -69 80 -97 121 -91 131 4 7 3 9 -4 6 -10 -7
-21 5 -143 153 -34 41 -73 89 -88 107 -14 17 -37 46 -51 63 -14 17 -33 41 -43
53 -11 12 -33 39 -50 61 -117 142 -154 187 -190 230 -23 27 -44 53 -46 59 -2
6 -13 20 -25 31 -12 12 -48 55 -81 96 -33 41 -66 82 -75 91 -17 19 -23 27
-102 125 -31 39 -63 77 -70 85 -7 8 -31 37 -53 64 -40 51 -72 88 -90 109 -5 6
-28 34 -50 61 -46 58 -63 79 -87 107 -10 11 -15 25 -11 31 3 5 1 7 -5 4 -5 -4
-26 15 -46 43 -20 27 -40 50 -46 50 -5 0 -10 5 -10 11 0 10 -10 23 -62 80 -10
10 -18 21 -18 24 0 3 -10 16 -22 29 -13 12 -34 37 -48 55 -28 37 -83 105 -138
170 -56 66 -65 77 -89 108 -12 15 -31 39 -42 52 -11 13 -18 28 -15 33 3 4 1 7
-4 6 -5 -2 -21 9 -35 24 -18 19 -28 23 -36 15z"/>
<path d="M14710 18166 c0 -2 8 -10 18 -17 15 -13 16 -12 3 4 -13 16 -21 21
-21 13z"/>
<path d="M3515 18150 c-3 -5 -1 -10 4 -10 6 0 11 5 11 10 0 6 -2 10 -4 10 -3
0 -8 -4 -11 -10z"/>
<path d="M3747 18149 c7 -7 15 -10 18 -7 3 3 -2 9 -12 12 -14 6 -15 5 -6 -5z"/>
<path d="M4656 18148 c3 -5 10 -6 15 -3 13 9 11 12 -6 12 -8 0 -12 -4 -9 -9z"/>
<path d="M18710 17910 c0 -5 5 -10 11 -10 5 0 7 5 4 10 -3 6 -8 10 -11 10 -2
0 -4 -4 -4 -10z"/>
<path d="M14396 17828 c3 -5 10 -6 15 -3 13 9 11 12 -6 12 -8 0 -12 -4 -9 -9z"/>
<path d="M14625 17829 c-3 -4 2 -6 10 -5 21 3 28 13 10 13 -9 0 -18 -4 -20 -8z"/>
<path d="M960 17510 c-9 -6 -10 -10 -3 -10 6 0 15 5 18 10 8 12 4 12 -15 0z"/>
<path d="M1185 17509 c-3 -4 2 -6 10 -5 21 3 28 13 10 13 -9 0 -18 -4 -20 -8z"/>
<path d="M633 17215 c0 -8 4 -12 9 -9 5 3 6 10 3 15 -9 13 -12 11 -12 -6z"/>
<path d="M15993 17215 c0 -8 4 -12 9 -9 5 3 6 10 3 15 -9 13 -12 11 -12 -6z"/>
<path d="M1990 17192 c0 -5 7 -9 15 -9 8 0 12 4 9 9 -3 4 -9 8 -15 8 -5 0 -9
-4 -9 -8z"/>
<path d="M2226 17188 c3 -5 10 -6 15 -3 13 9 11 12 -6 12 -8 0 -12 -4 -9 -9z"/>
<path d="M7356 17192 c-3 -5 1 -9 9 -9 8 0 12 4 9 9 -3 4 -7 8 -9 8 -2 0 -6
-4 -9 -8z"/>
<path d="M7586 17188 c3 -4 9 -8 15 -8 5 0 9 4 9 8 0 5 -7 9 -15 9 -8 0 -12
-4 -9 -9z"/>
<path d="M9670 17192 c0 -5 7 -9 15 -9 8 0 12 4 9 9 -3 4 -9 8 -15 8 -5 0 -9
-4 -9 -8z"/>
<path d="M9906 17188 c3 -5 10 -6 15 -3 13 9 11 12 -6 12 -8 0 -12 -4 -9 -9z"/>
<path d="M12473 17185 c0 -8 4 -12 9 -9 5 3 6 10 3 15 -9 13 -12 11 -12 -6z"/>
<path d="M17350 17192 c0 -5 7 -9 15 -9 8 0 12 4 9 9 -3 4 -9 8 -15 8 -5 0 -9
-4 -9 -8z"/>
<path d="M17586 17188 c3 -5 10 -6 15 -3 13 9 11 12 -6 12 -8 0 -12 -4 -9 -9z"/>
<path d="M12479 16968 c-5 -18 -6 -38 -1 -34 7 8 12 36 6 36 -2 0 -4 -1 -5 -2z"/>
<path d="M2136 16872 c-3 -5 1 -9 9 -9 8 0 12 4 9 9 -3 4 -7 8 -9 8 -2 0 -6
-4 -9 -8z"/>
<path d="M2553 16865 c0 -8 4 -12 9 -9 5 3 6 10 3 15 -9 13 -12 11 -12 -6z"/>
<path d="M6075 16871 c-3 -5 -2 -12 3 -15 5 -3 9 1 9 9 0 17 -3 19 -12 6z"/>
<path d="M9816 16872 c-3 -5 1 -9 9 -9 8 0 12 4 9 9 -3 4 -7 8 -9 8 -2 0 -6
-4 -9 -8z"/>
<path d="M17496 16872 c-3 -5 1 -9 9 -9 8 0 12 4 9 9 -3 4 -7 8 -9 8 -2 0 -6
-4 -9 -8z"/>
<path d="M13110 16791 c0 -6 4 -12 8 -15 5 -3 9 1 9 9 0 8 -4 15 -9 15 -4 0
-8 -4 -8 -9z"/>
<path d="M13435 16651 c-3 -5 -2 -12 3 -15 5 -3 9 1 9 9 0 17 -3 19 -12 6z"/>
<path d="M13113 16555 c0 -8 4 -12 9 -9 5 3 6 10 3 15 -9 13 -12 11 -12 -6z"/>
<path d="M76 16552 c-3 -5 1 -9 9 -9 8 0 12 4 9 9 -3 4 -7 8 -9 8 -2 0 -6 -4
-9 -8z"/>
<path d="M306 16548 c3 -5 10 -6 15 -3 13 9 11 12 -6 12 -8 0 -12 -4 -9 -9z"/>
<path d="M14715 16531 c-3 -5 -2 -12 3 -15 5 -3 9 1 9 9 0 17 -3 19 -12 6z"/>
<path d="M14150 16228 c0 -4 4 -8 9 -8 6 0 12 4 15 8 3 5 -1 9 -9 9 -8 0 -15
-4 -15 -9z"/>
<path d="M14385 16230 c-3 -6 1 -7 9 -4 18 7 21 14 7 14 -6 0 -13 -4 -16 -10z"/>
<path d="M13435 15941 c-3 -5 -2 -12 3 -15 5 -3 9 1 9 9 0 17 -3 19 -12 6z"/>
<path d="M16065 15909 c-3 -4 2 -6 10 -5 21 3 28 13 10 13 -9 0 -18 -4 -20 -8z"/>
<path d="M16306 15912 c-3 -5 1 -9 9 -9 8 0 12 4 9 9 -3 4 -7 8 -9 8 -2 0 -6
-4 -9 -8z"/>
<path d="M2396 15823 c-6 -14 -5 -15 5 -6 7 7 10 15 7 18 -3 3 -9 -2 -12 -12z"/>
<path d="M18710 15670 c0 -5 5 -10 11 -10 5 0 7 5 4 10 -3 6 -8 10 -11 10 -2
0 -4 -4 -4 -10z"/>
<path d="M18710 15030 c0 -5 5 -10 11 -10 5 0 7 5 4 10 -3 6 -8 10 -11 10 -2
0 -4 -4 -4 -10z"/>
<path d="M76 14632 c-3 -5 1 -9 9 -9 8 0 12 4 9 9 -3 4 -7 8 -9 8 -2 0 -6 -4
-9 -8z"/>
<path d="M306 14628 c3 -5 10 -6 15 -3 13 9 11 12 -6 12 -8 0 -12 -4 -9 -9z"/>
<path d="M18553 14555 c0 -8 4 -15 9 -15 4 0 8 4 8 9 0 6 -4 12 -8 15 -5 3 -9
-1 -9 -9z"/>
<path d="M18233 14225 c0 -8 4 -12 9 -9 4 3 8 9 8 15 0 5 -4 9 -8 9 -5 0 -9
-7 -9 -15z"/>
<path d="M18235 14001 c-3 -5 -2 -12 3 -15 5 -3 9 1 9 9 0 17 -3 19 -12 6z"/>
<path d="M76 12712 c-3 -5 1 -9 9 -9 8 0 12 4 9 9 -3 4 -7 8 -9 8 -2 0 -6 -4
-9 -8z"/>
<path d="M306 12708 c3 -5 10 -6 15 -3 13 9 11 12 -6 12 -8 0 -12 -4 -9 -9z"/>
<path d="M1350 12708 c0 -4 4 -8 9 -8 6 0 12 4 15 8 3 5 -1 9 -9 9 -8 0 -15
-4 -15 -9z"/>
<path d="M1586 12712 c-3 -5 1 -9 9 -9 8 0 12 4 9 9 -3 4 -7 8 -9 8 -2 0 -6
-4 -9 -8z"/>
<path d="M2630 12712 c0 -5 7 -9 15 -9 8 0 12 4 9 9 -3 4 -9 8 -15 8 -5 0 -9
-4 -9 -8z"/>
<path d="M2866 12708 c3 -5 10 -6 15 -3 13 9 11 12 -6 12 -8 0 -12 -4 -9 -9z"/>
<path d="M2239 12328 c-5 -18 -6 -38 -1 -34 7 8 12 36 6 36 -2 0 -4 -1 -5 -2z"/>
<path d="M2235 12081 c-3 -5 -2 -12 3 -15 5 -3 9 1 9 9 0 17 -3 19 -12 6z"/>
<path d="M18710 11830 c0 -5 5 -10 11 -10 5 0 7 5 4 10 -3 6 -8 10 -11 10 -2
0 -4 -4 -4 -10z"/>
<path d="M18553 11805 c0 -8 4 -12 9 -9 5 3 6 10 3 15 -9 13 -12 11 -12 -6z"/>
<path d="M16956 11428 c3 -5 10 -6 15 -3 13 9 11 12 -6 12 -8 0 -12 -4 -9 -9z"/>
<path d="M17186 11432 c-3 -5 1 -9 9 -9 8 0 15 4 15 9 0 4 -4 8 -9 8 -6 0 -12
-4 -15 -8z"/>
<path d="M18710 11190 c0 -5 5 -10 11 -10 5 0 7 5 4 10 -3 6 -8 10 -11 10 -2
0 -4 -4 -4 -10z"/>
<path d="M76 10792 c-3 -5 1 -9 9 -9 8 0 12 4 9 9 -3 4 -7 8 -9 8 -2 0 -6 -4
-9 -8z"/>
<path d="M306 10788 c3 -5 10 -6 15 -3 13 9 11 12 -6 12 -8 0 -12 -4 -9 -9z"/>
<path d="M1990 10792 c0 -5 7 -9 15 -9 8 0 12 4 9 9 -3 4 -9 8 -15 8 -5 0 -9
-4 -9 -8z"/>
<path d="M2226 10788 c3 -5 10 -6 15 -3 13 9 11 12 -6 12 -8 0 -12 -4 -9 -9z"/>
<path d="M17344 10792 c4 -3 14 -7 22 -8 9 -1 13 0 10 4 -4 3 -14 7 -22 8 -9
1 -13 0 -10 -4z"/>
<path d="M17586 10788 c3 -5 10 -6 15 -3 13 9 11 12 -6 12 -8 0 -12 -4 -9 -9z"/>
<path d="M2136 10472 c-3 -5 1 -9 9 -9 8 0 12 4 9 9 -3 4 -7 8 -9 8 -2 0 -6
-4 -9 -8z"/>
<path d="M17496 10472 c-3 -5 1 -9 9 -9 8 0 12 4 9 9 -3 4 -7 8 -9 8 -2 0 -6
-4 -9 -8z"/>
<path d="M18710 10230 c0 -5 5 -10 11 -10 5 0 7 5 4 10 -3 6 -8 10 -11 10 -2
0 -4 -4 -4 -10z"/>
<path d="M3513 10145 c0 -8 4 -12 9 -9 5 3 6 10 3 15 -9 13 -12 11 -12 -6z"/>
<path d="M953 9505 c0 -8 4 -12 9 -9 5 3 6 10 3 15 -9 13 -12 11 -12 -6z"/>
<path d="M959 9288 c-5 -18 -6 -38 -1 -34 7 8 12 36 6 36 -2 0 -4 -1 -5 -2z"/>
<path d="M2256 9192 c-3 -5 1 -9 9 -9 8 0 12 4 9 9 -3 4 -7 8 -9 8 -2 0 -6 -4
-9 -8z"/>
<path d="M17616 9192 c-3 -5 1 -9 9 -9 8 0 12 4 9 9 -3 4 -7 8 -9 8 -2 0 -6
-4 -9 -8z"/>
<path d="M76 8872 c-3 -5 1 -9 9 -9 8 0 12 4 9 9 -3 4 -7 8 -9 8 -2 0 -6 -4
-9 -8z"/>
<path d="M306 8868 c3 -5 10 -6 15 -3 13 9 11 12 -6 12 -8 0 -12 -4 -9 -9z"/>
<path d="M16486 8552 c-3 -5 1 -9 9 -9 8 0 12 4 9 9 -3 4 -7 8 -9 8 -2 0 -6
-4 -9 -8z"/>
<path d="M18230 8471 c0 -6 4 -12 8 -15 5 -3 9 1 9 9 0 8 -4 15 -9 15 -4 0 -8
-4 -8 -9z"/>
<path d="M18233 8235 c0 -8 4 -12 9 -9 5 3 6 10 3 15 -9 13 -12 11 -12 -6z"/>
<path d="M18710 7990 c0 -5 5 -10 11 -10 5 0 7 5 4 10 -3 6 -8 10 -11 10 -2 0
-4 -4 -4 -10z"/>
<path d="M1566 7908 c3 -5 10 -6 15 -3 13 9 11 12 -6 12 -8 0 -12 -4 -9 -9z"/>
<path d="M4685 7909 c-3 -4 2 -6 10 -5 21 3 28 13 10 13 -9 0 -18 -4 -20 -8z"/>
<path d="M2879 7848 c-5 -18 -6 -38 -1 -34 7 8 12 36 6 36 -2 0 -4 -1 -5 -2z"/>
<path d="M2875 7601 c-3 -5 -2 -12 3 -15 5 -3 9 1 9 9 0 17 -3 19 -12 6z"/>
<path d="M4790 7589 c0 -5 5 -7 10 -4 6 3 10 8 10 11 0 2 -4 4 -10 4 -5 0 -10
-5 -10 -11z"/>
<path d="M16313 7585 c0 -8 4 -12 9 -9 5 3 6 10 3 15 -9 13 -12 11 -12 -6z"/>
<path d="M16317 7363 c-10 -9 -9 -23 1 -23 5 0 9 7 9 15 0 17 -1 18 -10 8z"/>
<path d="M18710 7350 c0 -5 5 -10 11 -10 5 0 7 5 4 10 -3 6 -8 10 -11 10 -2 0
-4 -4 -4 -10z"/>
<path d="M16633 7045 c0 -8 4 -12 9 -9 5 3 6 10 3 15 -9 13 -12 11 -12 -6z"/>
<path d="M76 6952 c-3 -5 1 -9 9 -9 8 0 12 4 9 9 -3 4 -7 8 -9 8 -2 0 -6 -4
-9 -8z"/>
<path d="M306 6948 c3 -5 10 -6 15 -3 13 9 11 12 -6 12 -8 0 -12 -4 -9 -9z"/>
<path d="M2875 6951 c-3 -5 -2 -12 3 -15 5 -3 9 1 9 9 0 17 -3 19 -12 6z"/>
<path d="M18553 6875 c0 -8 4 -15 9 -15 4 0 8 4 8 9 0 6 -4 12 -8 15 -5 3 -9
-1 -9 -9z"/>
<path d="M2873 6715 c0 -8 4 -15 9 -15 4 0 8 4 8 9 0 6 -4 12 -8 15 -5 3 -9
-1 -9 -9z"/>
<path d="M1590 6551 c0 -6 4 -12 8 -15 5 -3 9 1 9 9 0 8 -4 15 -9 15 -4 0 -8
-4 -8 -9z"/>
<path d="M18233 6545 c0 -8 4 -12 9 -9 4 3 8 9 8 15 0 5 -4 9 -8 9 -5 0 -9 -7
-9 -15z"/>
<path d="M1915 6411 c-3 -5 -2 -12 3 -15 5 -3 9 1 9 9 0 17 -3 19 -12 6z"/>
<path d="M14554 6396 c1 -8 5 -18 8 -22 4 -3 5 1 4 10 -1 8 -5 18 -8 22 -4 3
-5 -1 -4 -10z"/>
<path d="M1593 6315 c0 -8 4 -12 9 -9 5 3 6 10 3 15 -9 13 -12 11 -12 -6z"/>
<path d="M18235 6321 c-3 -5 -2 -12 3 -15 5 -3 9 1 9 9 0 17 -3 19 -12 6z"/>
<path d="M17596 6312 c-3 -5 1 -9 9 -9 8 0 12 4 9 9 -3 4 -7 8 -9 8 -2 0 -6
-4 -9 -8z"/>
<path d="M17824 6312 c4 -3 14 -7 22 -8 9 -1 13 0 10 4 -4 3 -14 7 -22 8 -9 1
-13 0 -10 -4z"/>
<path d="M960 5990 c-9 -6 -10 -10 -3 -10 6 0 15 5 18 10 8 12 4 12 -15 0z"/>
<path d="M1905 5989 c-3 -4 2 -6 10 -5 21 3 28 13 10 13 -9 0 -18 -4 -20 -8z"/>
<path d="M17913 5965 c0 -8 4 -12 9 -9 5 3 6 10 3 15 -9 13 -12 11 -12 -6z"/>
<path d="M2235 5671 c-3 -5 -2 -12 3 -15 5 -3 9 1 9 9 0 17 -3 19 -12 6z"/>
<path d="M5436 5672 c-3 -5 1 -9 9 -9 8 0 12 4 9 9 -3 4 -7 8 -9 8 -2 0 -6 -4
-9 -8z"/>
<path d="M7356 5668 c3 -5 10 -6 15 -3 13 9 11 12 -6 12 -8 0 -12 -4 -9 -9z"/>
<path d="M1913 5575 c0 -8 4 -12 9 -9 5 3 6 10 3 15 -9 13 -12 11 -12 -6z"/>
<path d="M2233 5435 c0 -8 4 -15 9 -15 4 0 8 4 8 9 0 6 -4 12 -8 15 -5 3 -9
-1 -9 -9z"/>
<path d="M2553 5325 c0 -8 4 -12 9 -9 5 3 6 10 3 15 -9 13 -12 11 -12 -6z"/>
<path d="M11906 5192 c-3 -5 1 -9 9 -9 8 0 15 4 15 9 0 4 -4 8 -9 8 -6 0 -12
-4 -15 -8z"/>
<path d="M76 5032 c-3 -5 1 -9 9 -9 8 0 12 4 9 9 -3 4 -7 8 -9 8 -2 0 -6 -4
-9 -8z"/>
<path d="M306 5028 c3 -5 10 -6 15 -3 13 9 11 12 -6 12 -8 0 -12 -4 -9 -9z"/>
<path d="M4545 5029 c-3 -4 2 -6 10 -5 21 3 28 13 10 13 -9 0 -18 -4 -20 -8z"/>
<path d="M4786 5032 c-3 -5 1 -9 9 -9 8 0 12 4 9 9 -3 4 -7 8 -9 8 -2 0 -6 -4
-9 -8z"/>
<path d="M15676 5028 c3 -5 10 -6 15 -3 13 9 11 12 -6 12 -8 0 -12 -4 -9 -9z"/>
<path d="M3193 5005 c0 -8 4 -12 9 -9 5 3 6 10 3 15 -9 13 -12 11 -12 -6z"/>
<path d="M10553 4625 c0 -8 4 -12 9 -9 4 3 8 9 8 15 0 5 -4 9 -8 9 -5 0 -9 -7
-9 -15z"/>
<path d="M10555 4401 c-3 -5 -2 -12 3 -15 5 -3 9 1 9 9 0 17 -3 19 -12 6z"/>
<path d="M14395 4401 c-3 -5 -2 -12 3 -15 5 -3 9 1 9 9 0 17 -3 19 -12 6z"/>
<path d="M3515 4391 c-3 -5 -2 -12 3 -15 5 -3 9 1 9 9 0 17 -3 19 -12 6z"/>
<path d="M17593 4385 c0 -8 4 -12 9 -9 5 3 6 10 3 15 -9 13 -12 11 -12 -6z"/>
<path d="M17597 4163 c-10 -9 -9 -23 1 -23 5 0 9 7 9 15 0 17 -1 18 -10 8z"/>
<path d="M18710 4150 c0 -5 5 -10 11 -10 5 0 7 5 4 10 -3 6 -8 10 -11 10 -2 0
-4 -4 -4 -10z"/>
<path d="M18553 4125 c0 -8 4 -12 9 -9 5 3 6 10 3 15 -9 13 -12 11 -12 -6z"/>
<path d="M1566 4068 c3 -5 10 -6 15 -3 13 9 11 12 -6 12 -8 0 -12 -4 -9 -9z"/>
<path d="M8000 4070 c-9 -6 -10 -10 -3 -10 6 0 15 5 18 10 8 12 4 12 -15 0z"/>
<path d="M6465 3749 c-3 -4 2 -6 10 -5 21 3 28 13 10 13 -9 0 -18 -4 -20 -8z"/>
<path d="M6706 3752 c-3 -5 1 -9 9 -9 8 0 12 4 9 9 -3 4 -7 8 -9 8 -2 0 -6 -4
-9 -8z"/>
<path d="M12864 3752 c4 -3 14 -7 22 -8 9 -1 13 0 10 4 -4 3 -14 7 -22 8 -9 1
-13 0 -10 -4z"/>
<path d="M13106 3748 c3 -5 10 -6 15 -3 13 9 11 12 -6 12 -8 0 -12 -4 -9 -9z"/>
<path d="M18710 3510 c0 -5 5 -10 11 -10 5 0 7 5 4 10 -3 6 -8 10 -11 10 -2 0
-4 -4 -4 -10z"/>
<path d="M6126 3428 c3 -5 10 -6 15 -3 13 9 11 12 -6 12 -8 0 -12 -4 -9 -9z"/>
<path d="M13496 3428 c3 -5 10 -6 15 -3 13 9 11 12 -6 12 -8 0 -12 -4 -9 -9z"/>
<path d="M16126 3428 c3 -5 10 -6 15 -3 13 9 11 12 -6 12 -8 0 -12 -4 -9 -9z"/>
<path d="M7995 3121 c-3 -5 -2 -12 3 -15 5 -3 9 1 9 9 0 17 -3 19 -12 6z"/>
<path d="M76 3112 c-3 -5 1 -9 9 -9 8 0 12 4 9 9 -3 4 -7 8 -9 8 -2 0 -6 -4
-9 -8z"/>
<path d="M306 3108 c3 -5 10 -6 15 -3 13 9 11 12 -6 12 -8 0 -12 -4 -9 -9z"/>
<path d="M1990 3112 c0 -5 7 -9 15 -9 8 0 12 4 9 9 -3 4 -9 8 -15 8 -5 0 -9
-4 -9 -8z"/>
<path d="M2226 3108 c3 -5 10 -6 15 -3 13 9 11 12 -6 12 -8 0 -12 -4 -9 -9z"/>
<path d="M4796 3108 c3 -5 10 -6 15 -3 13 9 11 12 -6 12 -8 0 -12 -4 -9 -9z"/>
<path d="M5025 3109 c-3 -4 2 -6 10 -5 21 3 28 13 10 13 -9 0 -18 -4 -20 -8z"/>
<path d="M15036 3108 c3 -5 10 -6 15 -3 13 9 11 12 -6 12 -8 0 -12 -4 -9 -9z"/>
<path d="M15265 3109 c-3 -4 2 -6 10 -5 21 3 28 13 10 13 -9 0 -18 -4 -20 -8z"/>
<path d="M2136 2792 c-3 -5 1 -9 9 -9 8 0 12 4 9 9 -3 4 -7 8 -9 8 -2 0 -6 -4
-9 -8z"/>
<path d="M18710 2550 c0 -5 5 -10 11 -10 5 0 7 5 4 10 -3 6 -8 10 -11 10 -2 0
-4 -4 -4 -10z"/>
<path d="M7995 2481 c-3 -5 -2 -12 3 -15 5 -3 9 1 9 9 0 17 -3 19 -12 6z"/>
<path d="M9913 2475 c0 -8 4 -12 9 -9 5 3 6 10 3 15 -9 13 -12 11 -12 -6z"/>
<path d="M7346 2468 c3 -5 10 -6 15 -3 13 9 11 12 -6 12 -8 0 -12 -4 -9 -9z"/>
<path d="M12230 2472 c0 -5 7 -9 15 -9 8 0 12 4 9 9 -3 4 -9 8 -15 8 -5 0 -9
-4 -9 -8z"/>
<path d="M12466 2468 c3 -5 10 -6 15 -3 13 9 11 12 -6 12 -8 0 -12 -4 -9 -9z"/>
<path d="M17586 2468 c3 -5 10 -6 15 -3 13 9 11 12 -6 12 -8 0 -12 -4 -9 -9z"/>
<path d="M17919 2408 c-5 -18 -6 -38 -1 -34 7 8 12 36 6 36 -2 0 -4 -1 -5 -2z"/>
<path d="M3833 2375 c0 -8 4 -12 9 -9 5 3 6 10 3 15 -9 13 -12 11 -12 -6z"/>
<path d="M14073 2375 c0 -8 4 -12 9 -9 5 3 6 10 3 15 -9 13 -12 11 -12 -6z"/>
<path d="M7670 2156 c0 -2 7 -7 16 -10 8 -3 12 -2 9 4 -6 10 -25 14 -25 6z"/>
<path d="M3510 2071 c0 -6 4 -12 8 -15 5 -3 9 1 9 9 0 8 -4 15 -9 15 -4 0 -8
-4 -8 -9z"/>
<path d="M13750 2071 c0 -6 4 -12 8 -15 5 -3 9 1 9 9 0 8 -4 15 -9 15 -4 0 -8
-4 -8 -9z"/>
<path d="M3513 1835 c0 -8 4 -12 9 -9 5 3 6 10 3 15 -9 13 -12 11 -12 -6z"/>
<path d="M7995 1841 c-3 -5 -2 -12 3 -15 5 -3 9 1 9 9 0 17 -3 19 -12 6z"/>
<path d="M13753 1835 c0 -8 4 -12 9 -9 5 3 6 10 3 15 -9 13 -12 11 -12 -6z"/>
<path d="M953 1825 c0 -8 4 -12 9 -9 5 3 6 10 3 15 -9 13 -12 11 -12 -6z"/>
<path d="M5435 1831 c-3 -5 -2 -12 3 -15 5 -3 9 1 9 9 0 17 -3 19 -12 6z"/>
<path d="M15675 1831 c-3 -5 -2 -12 3 -15 5 -3 9 1 9 9 0 17 -3 19 -12 6z"/>
<path d="M959 1608 c-5 -18 -6 -38 -1 -34 7 8 12 36 6 36 -2 0 -4 -1 -5 -2z"/>
<path d="M5433 1595 c0 -8 4 -15 9 -15 4 0 8 4 8 9 0 6 -4 12 -8 15 -5 3 -9
-1 -9 -9z"/>
<path d="M15673 1595 c0 -8 4 -15 9 -15 4 0 8 4 8 9 0 6 -4 12 -8 15 -5 3 -9
-1 -9 -9z"/>
<path d="M2256 1512 c-3 -5 1 -9 9 -9 8 0 12 4 9 9 -3 4 -7 8 -9 8 -2 0 -6 -4
-9 -8z"/>
<path d="M7035 1201 c-3 -5 -2 -12 3 -15 5 -3 9 1 9 9 0 17 -3 19 -12 6z"/>
<path d="M7995 1201 c-3 -5 -2 -12 3 -15 5 -3 9 1 9 9 0 17 -3 19 -12 6z"/>
<path d="M17275 1201 c-3 -5 -2 -12 3 -15 5 -3 9 1 9 9 0 17 -3 19 -12 6z"/>
<path d="M76 1192 c-3 -5 1 -9 9 -9 8 0 12 4 9 9 -3 4 -7 8 -9 8 -2 0 -6 -4
-9 -8z"/>
<path d="M306 1188 c3 -5 10 -6 15 -3 13 9 11 12 -6 12 -8 0 -12 -4 -9 -9z"/>
<path d="M12230 1192 c0 -5 7 -9 15 -9 8 0 12 4 9 9 -3 4 -9 8 -15 8 -5 0 -9
-4 -9 -8z"/>
<path d="M12466 1188 c3 -5 10 -6 15 -3 13 9 11 12 -6 12 -8 0 -12 -4 -9 -9z"/>
<path d="M1270 631 c0 -6 4 -12 8 -15 5 -3 9 1 9 9 0 8 -4 15 -9 15 -4 0 -8
-4 -8 -9z"/>
<path d="M3830 631 c0 -6 4 -12 8 -15 5 -3 9 1 9 9 0 8 -4 15 -9 15 -4 0 -8
-4 -8 -9z"/>
<path d="M6390 631 c0 -6 4 -12 8 -15 5 -3 9 1 9 9 0 8 -4 15 -9 15 -4 0 -8
-4 -8 -9z"/>
<path d="M14070 631 c0 -6 4 -12 8 -15 5 -3 9 1 9 9 0 8 -4 15 -9 15 -4 0 -8
-4 -8 -9z"/>
<path d="M16630 631 c0 -6 4 -12 8 -15 5 -3 9 1 9 9 0 8 -4 15 -9 15 -4 0 -8
-4 -8 -9z"/>
</g>
</svg>
